#
# Track frame offsets:
#   150
#   28225
#   55025
#   65775
#   88175
#   121125
#
# Disc length: 2199 seconds
#
# Submitted via: cddb-tool 0.4.7
#
#blues,classical,country,data,folk,jazz,newage,reggae,rock,soundtrack,misc
#CATEGORY=misc
DISCID=50089506
DTITLE=Unknown Artist / Unknown Album
DYEAR=
DGENRE=
TTITLE0=Track 1
TTITLE1=Track 2
TTITLE2=Track 3
TTITLE3=Track 4
TTITLE4=Track 5
TTITLE5=Track 6
EXTD=
EXTT0=
EXTT1=
EXTT2=
EXTT3=
EXTT4=
EXTT5=
PLAYORDER=
